<svg height="512pt" viewBox="0 -13 512 511" width="512pt" xmlns="http://www.w3.org/2000/svg"><path d="m409.742188 151.53125c-2.242188-12.765625-13.9375-21.679688-26.859376-20.660156-27.652343 2.175781-55.96875-8.054688-75.976562-30.246094-15.617188-17.320312-23.082031-38.925781-23.769531-60.535156-.910157-28.585938-27.035157-29.96875-27.136719-29.980469-209.261719-20.601563-248.5 111.257813-248.5 248.5s100.683594 222.863281 237.898438 220.171875c204.796874-4.011719 259.101562-97.441406 259.101562-220.171875 0-34.683594-12.773438-41.054687-27.5625-42.453125-23.875-2.257812-58.378906-14.460938-67.195312-64.625zm0 0" fill="#ffaa75"/><path d="m201.734375 275.601562c-50.015625-27.113281-83.078125-77.667968-87.265625-134.40625-4.644531-62.996093 11.300781-119.125 11.300781-119.125-96.660156 35.8125-118.269531 134.695313-118.269531 236.539063 0 137.242187 100.683594 222.863281 237.898438 220.171875 63.984374-1.253906 113.28125-11.234375 150.816406-28.113281-63.695313-89.8125-152.339844-152.21875-194.480469-175.066407zm0 0" fill="#ff8c42"/><path d="m174.03125 134.132812-12.140625-12.144531c-10.753906-10.753906-10.753906-28.1875 0-38.941406l12.140625-12.140625c10.753906-10.753906 28.191406-10.753906 38.941406 0l12.144532 12.140625c10.75 10.753906 10.75 28.1875 0 38.941406l-12.144532 12.144531c-10.75 10.75-28.1875 10.75-38.941406 0zm0 0" fill="#dd6642"/><path d="m185.367188 414.371094-10.789063-10.785156c-9.550781-9.554688-9.550781-25.039063 0-34.59375l10.789063-10.785157c9.550781-9.554687 25.039062-9.554687 34.59375 0l10.785156 10.785157c9.554687 9.554687 9.554687 25.039062 0 34.59375l-10.785156 10.785156c-9.554688 9.554687-25.042969 9.554687-34.59375 0zm0 0" fill="#b24e2f"/><path d="m60.585938 244.34375-8.90625-8.90625c-7.890626-7.886719-7.890626-20.675781 0-28.566406l8.90625-8.90625c7.886718-7.886719 20.675781-7.886719 28.5625 0l8.90625 8.90625c7.890624 7.890625 7.890624 20.679687 0 28.566406l-8.90625 8.90625c-7.886719 7.886719-20.675782 7.886719-28.5625 0zm0 0" fill="#b24e2f"/><path d="m373.160156 333.257812-12.144531-12.144531c-10.75-10.753906-10.75-28.1875 0-38.941406l12.144531-12.140625c10.75-10.753906 28.1875-10.753906 38.941406 0l12.140626 12.140625c10.753906 10.753906 10.753906 28.1875 0 38.941406l-12.140626 12.144531c-10.753906 10.753907-28.191406 10.753907-38.941406 0zm0 0" fill="#dd6642"/><path d="m276.859375 232.4375c0-13.640625-9.339844-24.699219-20.859375-24.699219s-20.859375 11.058594-20.859375 24.699219 9.339844 24.695312 20.859375 24.695312 20.859375-11.054687 20.859375-24.695312zm0 0" fill="#454545"/><path d="m336.65625 225.378906c-4.140625 0-7.5-3.355468-7.5-7.5v-12.449218c0-4.144532 3.359375-7.5 7.5-7.5 4.144531 0 7.5 3.355468 7.5 7.5v12.449218c0 4.144532-3.355469 7.5-7.5 7.5zm0 0"/><path d="m175.34375 225.378906c-4.144531 0-7.5-3.355468-7.5-7.5v-12.449218c0-4.144532 3.355469-7.5 7.5-7.5 4.140625 0 7.5 3.355468 7.5 7.5v12.449218c0 4.144532-3.359375 7.5-7.5 7.5zm0 0"/><path d="m63.8125 420.941406c-41.746094-40.933594-63.8125-97.066406-63.8125-162.332031 0-59.652344 7.496094-106.957031 22.925781-144.613281 1.570313-3.832032 5.949219-5.664063 9.78125-4.097656 3.832031 1.570312 5.667969 5.953124 4.097657 9.785156-14.671876 35.816406-21.804688 81.257812-21.804688 138.925781 0 61.144531 20.511719 113.574219 59.3125 151.625 40.304688 39.519531 100.539062 61.050781 170.941406 61.050781 48.683594 0 90.621094-7.164062 124.667969-18.457031 31.398437-10.414063 57.144531-25.527344 76.519531-44.914063 34.023438-34.042968 50.558594-82.878906 50.558594-149.304687 0-33.019531-12.003906-34.15625-20.769531-34.984375-23.332031-2.207031-63.957031-14.339844-73.875-70.796875-1.578125-8.976563-9.695313-15.203125-18.886719-14.480469-31.242188 2.457032-61.179688-9.460937-82.132812-32.699218-16.015626-17.761719-24.902344-40.347657-25.695313-65.320313-.667969-20.878906-18.125-22.601563-20.113281-22.730469-.074219-.003906-.164063-.011718-.238282-.019531-53.152343-5.230469-97.824218-.578125-132.800781 13.828125-31.253906 12.875-54.941406 33.097656-72.414062 61.816406-2.152344 3.539063-6.765625 4.664063-10.304688 2.507813-3.539062-2.152344-4.664062-6.765625-2.511719-10.304688 18.925782-31.109375 45.679688-53.949219 79.515626-67.890625 37.246093-15.34375 84.296874-20.355468 139.847656-14.902344 11.457031.792969 33.128906 9.558594 34.011718 37.21875.679688 21.378907 8.234376 40.660157 21.84375 55.75 17.808594 19.75 43.246094 29.878907 69.816407 27.792969 16.925781-1.34375 31.914062 10.203125 34.835937 26.839844 7.789063 44.320313 37.207032 56.25 60.515625 58.457031 23.757813 2.246094 34.355469 17.640625 34.355469 49.917969 0 70.601563-17.972656 122.910156-54.945312 159.90625-43.640626 43.664063-112.804688 67.765625-211.507813 67.765625-79.035156 0-138.601563-23.039062-181.734375-65.339844zm0 0"/><path d="m256 264.632812c-15.636719 0-28.359375-14.441406-28.359375-32.195312s12.722656-32.199219 28.359375-32.199219 28.359375 14.445313 28.359375 32.199219-12.722656 32.195312-28.359375 32.195312zm0-49.394531c-7.367188 0-13.359375 7.714844-13.359375 17.199219 0 9.480469 5.992187 17.195312 13.359375 17.195312s13.359375-7.714843 13.359375-17.195312c0-9.484375-5.992187-17.199219-13.359375-17.199219zm0 0"/><path d="m168.730469 139.433594-12.140625-12.144532c-13.660156-13.65625-13.660156-35.886718 0-49.546874l12.140625-12.140626c13.660156-13.660156 35.886719-13.660156 49.550781 0l12.140625 12.140626c13.660156 13.660156 13.660156 35.886718 0 49.546874l-12.144531 12.144532c-13.660156 13.660156-35.886719 13.660156-49.546875 0zm38.941406-63.226563c-7.8125-7.808593-20.523437-7.808593-28.332031 0l-12.144532 12.144531c-7.8125 7.8125-7.8125 20.519532 0 28.332032l12.144532 12.144531c7.808594 7.8125 20.519531 7.8125 28.332031 0l12.140625-12.144531c7.8125-7.8125 7.8125-20.519532 0-28.332032zm0 0"/><path d="m180.0625 419.675781-10.785156-10.789062c-12.460938-12.460938-12.460938-32.738281 0-45.199219l10.785156-10.785156c12.464844-12.464844 32.742188-12.464844 45.203125-.003906l10.785156 10.789062c12.460938 12.460938 12.460938 32.738281 0 45.199219l-10.785156 10.785156c-12.460937 12.464844-32.738281 12.464844-45.203125.003906zm34.59375-56.167969c-6.609375-6.613281-17.371094-6.613281-23.984375 0l-10.785156 10.785157c-6.613281 6.613281-6.617188 17.375-.003907 23.988281l10.789063 10.785156c6.613281 6.613282 17.375 6.613282 23.984375 0l10.789062-10.785156c6.613282-6.613281 6.613282-17.375 0-23.988281zm0 0"/><path d="m55.28125 249.644531-8.90625-8.90625c-10.796875-10.800781-10.796875-28.371093 0-39.171875l8.90625-8.90625c10.800781-10.800781 28.375-10.800781 39.171875 0l8.90625 8.90625c10.800781 10.800782 10.800781 28.375.003906 39.171875l-8.910156 8.90625c-10.796875 10.800781-28.371094 10.800781-39.171875 0zm28.566406-46.375c-4.949218-4.953125-13.007812-4.953125-17.957031 0l-8.90625 8.90625c-4.953125 4.949219-4.953125 13.007813 0 17.957031l8.90625 8.90625c4.949219 4.949219 13.007813 4.953126 17.957031 0l8.910156-8.90625c4.949219-4.949218 4.949219-13.007812-.003906-17.957031zm0 0"/><path d="m367.859375 338.558594-12.144531-12.144532c-13.660156-13.660156-13.660156-35.886718 0-49.546874l12.140625-12.140626c13.660156-13.660156 35.886719-13.660156 49.550781 0l12.140625 12.140626c13.660156 13.660156 13.660156 35.890624 0 49.546874l-12.140625 12.144532c-13.660156 13.660156-35.886719 13.660156-49.546875 0zm38.9375-63.222656c-7.8125-7.8125-20.523437-7.8125-28.332031-.003907l-12.144532 12.144531c-7.8125 7.8125-7.808593 20.523438 0 28.335938l12.144532 12.140625c7.8125 7.8125 20.519531 7.8125 28.332031 0l12.144531-12.140625c7.8125-7.8125 7.8125-20.523438 0-28.335938zm0 0"/></svg>
